<svg xmlns="http://www.w3.org/2000/svg" viewBox="0 0 32 32">
  <defs>
    <linearGradient id="g" x1="0" y1="0" x2="1" y2="1">
      <stop offset="0%" stop-color="#6366f1"/>
      <stop offset="100%" stop-color="#8b5cf6"/>
    </linearGradient>
  </defs>
  <rect x="2" y="2" width="28" height="28" rx="7" fill="url(#g)"/>
  <path fill="#ffffff" d="M16 8c-3.314 0-6 2.239-6 5h3c0-1.103 1.346-2 3-2s3 .897 3 2c0 1.057-.665 1.55-1.898 2.377C16.95 16.12 16 16.751 16 18v1h3v-1c0-.27.383-.57 1.352-1.219C21.861 15.854 23 14.733 23 13c0-2.761-3.134-5-7-5zm-1.5 15a1.5 1.5 0 1 0 0-3 1.5 1.5 0 0 0 0 3z"/>
</svg>
